<?xml version="1.0"?>
<svg width="32" height="32" xmlns="http://www.w3.org/2000/svg">
<g>
	<title>Layer 1</title>
	<g>
		<rect height="8" width="2.5" x="14.75" fill="#EEE">
			<animate attributeName="fill" from="black" to="#EEE" begin="1.2s" dur="1.2s" repeatCount="indefinite"/>
		</rect>
	</g>
	<g>
		<rect height="2.5" width="8" fill="#EEE" transform="matrix(0.5,0.866,-0.866,0.5,9.8564,-5.8564) " y="4.358" x="6">
			<animate attributeName="fill" from="black" to="#EEE" begin="1.1s" dur="1.2s" repeatCount="indefinite"/>
		</rect>
	</g>
	<g>
		<rect height="2.5" width="8" fill="#EEE" transform="matrix(0.866,0.5,-0.5,0.866,5.7517,-1.4644) " y="8.75" x="1.609">
			<animate attributeName="fill" from="black" to="#EEE" begin="1s" dur="1.2s" repeatCount="indefinite"/>
		</rect>
	</g>
	<g>
		<rect height="2.5" width="8" fill="#EEE" y="14.75">
			<animate attributeName="fill" from="black" to="#EEE" begin="0.9s" dur="1.2s" repeatCount="indefinite"/>
		</rect>
	</g>
	<g>
		<rect height="8" width="2.5" fill="#EEE" transform="matrix(0.4998,0.8661,-0.8661,0.4998,21.8598,6.145) " y="18" x="4.359">
			<animate attributeName="fill" from="black" to="#EEE" begin="0.8s" dur="1.2s" repeatCount="indefinite"/>
		</rect>
	</g>
	<g>
		<rect height="8" width="2.5" fill="#EEE" transform="matrix(0.866,0.5,-0.5,0.866,14.5359,-1.4651) " y="22.392" x="8.752">
			<animate attributeName="fill" from="black" to="#EEE" begin="0.7s" dur="1.2s" repeatCount="indefinite"/>
		</rect>
	</g>
	<g>
		<rect height="8" width="2.5" fill="#EEE" y="24" x="14.752">
			<animate attributeName="fill" from="black" to="#EEE" begin="0.6s" dur="1.2s" repeatCount="indefinite"/>
		</rect>
	</g>
	<g>
		<rect height="2.5" width="8" fill="#EEE" transform="matrix(0.5001,0.866,-0.866,0.5001,33.8526,-5.8603) " y="25.141" x="18.003">
			<animate attributeName="fill" from="black" to="#EEE" begin="0.5s" dur="1.2s" repeatCount="indefinite"/>
		</rect>
	</g>
	<g>
		<rect height="2.5" width="8" fill="#EEE" transform="matrix(0.8661,0.4998,-0.4998,0.8661,14.5287,-10.2476) " y="20.747" x="22.394">	<animate attributeName="fill" from="black" to="#EEE" begin="0.4s" dur="1.2s" repeatCount="indefinite"/>
		</rect>
	</g>
	<g>
		<rect height="2.5" width="8" fill="#EEE" y="14.747" x="24.001">
			<animate attributeName="fill" from="black" to="#EEE" begin="0.3s" dur="1.2s" repeatCount="indefinite"/>
		</rect>
	</g>
	<g>
		<rect height="8" width="2.5" fill="#EEE" transform="matrix(0.5,0.866,-0.866,0.5,21.8536,-17.8577) " y="5.997" x="25.142">
			<animate attributeName="fill" from="black" to="#EEE" begin="0.2s" dur="1.2s" repeatCount="indefinite"/>
		</rect>
	</g>
	<g>
		<rect height="8" width="2.5" fill="#EEE" transform="matrix(0.8663,0.4995,-0.4995,0.8663,5.7417,-10.2399) " y="1.606" x="20.749">
			<animate attributeName="fill" from="black" to="#EEE" begin="0.1s" dur="1.2s" repeatCount="indefinite"/>
		</rect>
	</g>
</g>
</svg>
